<?xml version="1.0" encoding="UTF-8"?>
<svg xmlns="http://www.w3.org/2000/svg" xmlns:xlink="http://www.w3.org/1999/xlink" width="150px" height="150px" viewBox="0 0 150 150" version="1.1">
<g id="surface1">
<rect x="0" y="0" width="150" height="150" style="fill:rgb(100%,100%,100%);fill-opacity:1;stroke:none;"/>
<path style=" stroke:none;fill-rule:nonzero;fill:rgb(0%,0%,0%);fill-opacity:1;" d="M 57.226562 66.570312 L 62 66.570312 C 63.105469 66.570312 64.082031 66.777344 64.9375 67.1875 C 65.796875 67.601562 66.460938 68.1875 66.933594 68.949219 C 67.402344 69.710938 67.636719 70.597656 67.636719 71.621094 C 67.636719 72.636719 67.402344 73.527344 66.933594 74.289062 C 66.460938 75.046875 65.796875 75.632812 64.9375 76.042969 C 64.082031 76.457031 63.105469 76.664062 62 76.664062 L 57.226562 76.664062 Z M 61.886719 74.382812 C 62.75 74.382812 63.445312 74.136719 63.96875 73.652344 C 64.496094 73.160156 64.757812 72.480469 64.757812 71.621094 C 64.757812 70.753906 64.496094 70.074219 63.96875 69.589844 C 63.445312 69.097656 62.75 68.851562 61.886719 68.851562 L 60.082031 68.851562 L 60.082031 74.382812 Z M 61.886719 74.382812 "/>
<path style=" stroke:none;fill-rule:nonzero;fill:rgb(0%,0%,0%);fill-opacity:1;" d="M 70.203125 69.789062 C 70.480469 69.429688 70.84375 69.164062 71.289062 68.988281 C 71.738281 68.808594 72.25 68.71875 72.828125 68.71875 L 72.828125 71.183594 C 72.578125 71.152344 72.371094 71.136719 72.207031 71.136719 C 71.621094 71.136719 71.160156 71.300781 70.828125 71.621094 C 70.496094 71.9375 70.332031 72.421875 70.332031 73.074219 L 70.332031 76.664062 L 67.59375 76.664062 L 67.59375 68.851562 L 70.203125 68.851562 Z M 70.203125 69.789062 "/>
<path style=" stroke:none;fill-rule:nonzero;fill:rgb(0%,0%,0%);fill-opacity:1;" d="M 72.570312 68.851562 L 75.304688 68.851562 L 75.304688 76.664062 L 72.570312 76.664062 Z M 73.9375 67.980469 C 73.4375 67.980469 73.03125 67.84375 72.726562 67.5625 C 72.414062 67.285156 72.261719 66.9375 72.261719 66.527344 C 72.261719 66.113281 72.414062 65.769531 72.726562 65.488281 C 73.03125 65.210938 73.4375 65.070312 73.9375 65.070312 C 74.4375 65.070312 74.839844 65.203125 75.148438 65.46875 C 75.457031 65.730469 75.613281 66.070312 75.613281 66.480469 C 75.613281 66.917969 75.457031 67.273438 75.148438 67.558594 C 74.839844 67.839844 74.4375 67.980469 73.9375 67.980469 Z M 73.9375 67.980469 "/>
<path style=" stroke:none;fill-rule:nonzero;fill:rgb(0%,0%,0%);fill-opacity:1;" d="M 83.898438 68.851562 L 80.667969 76.664062 L 77.84375 76.664062 L 74.628906 68.851562 L 77.4375 68.851562 L 79.3125 73.621094 L 81.285156 68.851562 Z M 83.898438 68.851562 "/>
<path style=" stroke:none;fill-rule:nonzero;fill:rgb(0%,0%,0%);fill-opacity:1;" d="M 91.179688 72.769531 C 91.179688 72.792969 91.164062 73.019531 91.136719 73.449219 L 85.457031 73.449219 C 85.570312 73.851562 85.796875 74.160156 86.125 74.375 C 86.457031 74.59375 86.875 74.699219 87.375 74.699219 C 87.75 74.699219 88.070312 74.648438 88.34375 74.542969 C 88.617188 74.4375 88.894531 74.261719 89.175781 74.027344 L 90.617188 75.527344 C 89.859375 76.371094 88.75 76.792969 87.289062 76.792969 C 86.375 76.792969 85.570312 76.621094 84.882812 76.277344 C 84.1875 75.929688 83.652344 75.449219 83.269531 74.832031 C 82.890625 74.214844 82.699219 73.519531 82.699219 72.738281 C 82.699219 71.972656 82.882812 71.285156 83.257812 70.675781 C 83.625 70.0625 84.140625 69.585938 84.792969 69.238281 C 85.445312 68.894531 86.183594 68.71875 87 68.71875 C 87.777344 68.71875 88.484375 68.878906 89.117188 69.199219 C 89.75 69.523438 90.253906 69.988281 90.625 70.601562 C 90.996094 71.210938 91.179688 71.933594 91.179688 72.769531 Z M 87.011719 70.664062 C 86.589844 70.664062 86.238281 70.785156 85.949219 71.027344 C 85.664062 71.269531 85.488281 71.59375 85.414062 72.007812 L 88.613281 72.007812 C 88.539062 71.59375 88.359375 71.269531 88.074219 71.027344 C 87.789062 70.785156 87.4375 70.664062 87.011719 70.664062 Z M 87.011719 70.664062 "/>
<path style=" stroke:none;fill-rule:nonzero;fill:rgb(0%,0%,0%);fill-opacity:1;" d="M 62.996094 65.507812 L 62.996094 66.359375 L 56.824219 66.359375 L 56.824219 65.683594 L 61.601562 59.640625 L 56.914062 59.640625 L 56.914062 58.777344 L 62.90625 58.777344 L 62.90625 59.453125 L 58.136719 65.507812 Z M 62.996094 65.507812 "/>
<path style=" stroke:none;fill-rule:nonzero;fill:rgb(0%,0%,0%);fill-opacity:1;" d="M 70.203125 62.882812 L 63.859375 62.882812 C 63.917969 63.671875 64.21875 64.308594 64.765625 64.796875 C 65.316406 65.28125 66.007812 65.519531 66.84375 65.519531 C 67.316406 65.519531 67.75 65.4375 68.140625 65.269531 C 68.539062 65.101562 68.878906 64.851562 69.167969 64.527344 L 69.742188 65.191406 C 69.40625 65.59375 68.984375 65.902344 68.480469 66.113281 C 67.976562 66.328125 67.421875 66.433594 66.816406 66.433594 C 66.039062 66.433594 65.347656 66.269531 64.75 65.933594 C 64.148438 65.601562 63.679688 65.144531 63.34375 64.558594 C 63.003906 63.972656 62.835938 63.308594 62.835938 62.566406 C 62.835938 61.828125 62.996094 61.164062 63.316406 60.578125 C 63.640625 59.988281 64.085938 59.535156 64.648438 59.207031 C 65.210938 58.878906 65.84375 58.714844 66.542969 58.714844 C 67.242188 58.714844 67.871094 58.878906 68.429688 59.207031 C 68.988281 59.535156 69.425781 59.988281 69.742188 60.570312 C 70.058594 61.152344 70.21875 61.816406 70.21875 62.566406 Z M 66.542969 59.597656 C 65.8125 59.597656 65.199219 59.832031 64.703125 60.296875 C 64.207031 60.761719 63.925781 61.371094 63.859375 62.121094 L 69.234375 62.121094 C 69.167969 61.371094 68.886719 60.761719 68.390625 60.296875 C 67.898438 59.832031 67.28125 59.597656 66.542969 59.597656 Z M 66.542969 59.597656 "/>
<path style=" stroke:none;fill-rule:nonzero;fill:rgb(0%,0%,0%);fill-opacity:1;" d="M 71.875 60.257812 C 72.113281 59.75 72.472656 59.367188 72.949219 59.109375 C 73.421875 58.847656 74.011719 58.714844 74.71875 58.714844 L 74.71875 59.707031 L 74.472656 59.695312 C 73.671875 59.695312 73.046875 59.941406 72.59375 60.433594 C 72.140625 60.921875 71.917969 61.609375 71.917969 62.496094 L 71.917969 66.359375 L 70.890625 66.359375 L 70.890625 58.777344 L 71.875 58.777344 Z M 71.875 60.257812 "/>
<path style=" stroke:none;fill-rule:nonzero;fill:rgb(0%,0%,0%);fill-opacity:1;" d="M 78.359375 66.433594 C 77.632812 66.433594 76.972656 66.269531 76.386719 65.933594 C 75.800781 65.601562 75.34375 65.144531 75.003906 64.558594 C 74.667969 63.972656 74.5 63.308594 74.5 62.566406 C 74.5 61.828125 74.667969 61.164062 75.003906 60.578125 C 75.34375 59.988281 75.800781 59.535156 76.386719 59.207031 C 76.972656 58.878906 77.632812 58.714844 78.359375 58.714844 C 79.09375 58.714844 79.75 58.878906 80.335938 59.207031 C 80.921875 59.535156 81.382812 59.988281 81.710938 60.578125 C 82.042969 61.164062 82.210938 61.828125 82.210938 62.566406 C 82.210938 63.308594 82.042969 63.972656 81.710938 64.558594 C 81.382812 65.144531 80.921875 65.601562 80.335938 65.933594 C 79.75 66.269531 79.09375 66.433594 78.359375 66.433594 Z M 78.359375 65.519531 C 78.902344 65.519531 79.386719 65.402344 79.8125 65.160156 C 80.238281 64.914062 80.574219 64.566406 80.8125 64.113281 C 81.050781 63.660156 81.171875 63.144531 81.171875 62.566406 C 81.171875 61.988281 81.050781 61.476562 80.8125 61.027344 C 80.574219 60.574219 80.238281 60.222656 79.8125 59.976562 C 79.386719 59.730469 78.902344 59.609375 78.359375 59.609375 C 77.824219 59.609375 77.339844 59.730469 76.910156 59.976562 C 76.484375 60.222656 76.148438 60.574219 75.90625 61.027344 C 75.65625 61.476562 75.535156 61.988281 75.535156 62.566406 C 75.535156 63.144531 75.65625 63.660156 75.90625 64.113281 C 76.148438 64.566406 76.484375 64.914062 76.910156 65.160156 C 77.339844 65.402344 77.824219 65.519531 78.359375 65.519531 Z M 78.359375 65.519531 "/>
</g>
</svg>
